<?xml version="1.0" encoding="UTF-8"?>
<svg width="144px" height="144px" viewBox="0 0 144 144" version="1.1" xmlns="http://www.w3.org/2000/svg" xmlns:xlink="http://www.w3.org/1999/xlink">
    <!-- Generator: Sketch 44 (41411) - http://www.bohemiancoding.com/sketch -->
    <title>bus</title>
    <desc>Created with Sketch.</desc>
    <defs></defs>
    <g id="Page-1" stroke="none" stroke-width="1" fill="none" fill-rule="evenodd">
        <g id="iPhone-7" transform="translate(-116.000000, -472.000000)" stroke="#FFFFFF" stroke-width="3">
            <g id="Group-4" transform="translate(118.000000, 474.000000)">
                <circle id="Oval-3" cx="70" cy="70" r="70"></circle>
                <g id="BUS" transform="translate(29.000000, 18.000000)">
                    <rect id="Rectangle-5" x="1.5" y="1.5" width="78" height="85.173913" rx="18"></rect>
                    <path d="M23.9895105,86.8478261 L13.3951049,86.8478261 L13.3951049,96.9201885 C13.3951049,99.8457528 15.7667434,102.217391 18.6923077,102.217391 C21.617872,102.217391 23.9895105,99.8457528 23.9895105,96.9201885 L23.9895105,86.8478261 Z" id="Rectangle-3"></path>
                    <path d="M67.0384615,86.8478261 L56.4440559,86.8478261 L56.4440559,96.9201885 C56.4440559,99.8457528 58.8156944,102.217391 61.7412587,102.217391 C64.6668231,102.217391 67.0384615,99.8457528 67.0384615,96.9201885 L67.0384615,86.8478261 Z" id="Rectangle-3"></path>
                    <rect id="Rectangle-6" x="10.5629371" y="20.1521739" width="59.3076923" height="35.4347826" rx="6"></rect>
                    <path d="M25.7727273,10.4565217 L54.7107754,10.4565217" id="Line" stroke-linecap="square"></path>
                    <ellipse id="Oval-2" cx="60.041958" cy="72.9130435" rx="6.7972028" ry="6.7826087"></ellipse>
                    <ellipse id="Oval-2" cx="18.6923077" cy="72.9130435" rx="6.7972028" ry="6.7826087"></ellipse>
                </g>
            </g>
        </g>
    </g>
</svg>